<svg width="132" height="32" viewBox="0 0 132 32" fill="none" xmlns="http://www.w3.org/2000/svg">
<g clip-path="url(#clip0_460_40897)">
<path d="M113.182 0C111.112 0 109.419 1.6718 109.425 3.74189C109.419 5.82247 111.128 7.48903 113.203 7.48379C115.273 7.48903 116.929 5.82247 116.929 3.74189C116.924 1.67704 115.252 0 113.182 0ZM45.2517 0.062889C43.1711 0.062889 41.494 1.71897 41.494 3.78906C41.494 5.86964 43.1763 7.5624 45.2517 7.56764C47.3165 7.56764 48.9936 5.86964 48.9936 3.78906C48.9988 1.71897 47.3165 0.062889 45.2517 0.062889ZM101.149 4.26597C99.0846 4.26597 97.3919 5.93777 97.3919 8.00786C97.3919 10.078 99.0794 11.7655 101.149 11.7655C103.225 11.7655 104.891 10.0832 104.891 8.00786C104.897 5.94301 103.225 4.26597 101.149 4.26597ZM125.288 4.26597C123.223 4.26597 121.531 5.93777 121.531 8.00786C121.531 10.078 123.223 11.7655 125.288 11.7655C127.369 11.7655 129.014 10.078 129.014 8.00786C129.014 5.93777 127.369 4.26073 125.288 4.26597ZM57.0905 4.32886C55.0257 4.32886 53.3329 6.02162 53.3329 8.08647C53.3329 10.1618 55.0204 11.8284 57.0905 11.8284C59.1501 11.8284 60.8324 10.1566 60.8324 8.08647C60.8324 6.02162 59.1554 4.32886 57.0905 4.32886ZM33.1927 4.42843C31.1279 4.42319 29.4508 6.09499 29.4508 8.15984V8.17557C29.4508 10.2509 31.1174 11.9384 33.1927 11.9332C35.2523 11.9332 36.9346 10.2457 36.9346 8.17557C36.9346 6.10023 35.2523 4.42843 33.1927 4.42843ZM114.466 13.17C114.466 13.17 107.019 13.2172 106.93 13.2172C105.662 13.2172 104.587 14.2968 104.587 15.5598L104.572 29.1019H104.587C104.645 30.7055 105.987 32 107.601 32C109.231 32 110.572 30.7055 110.63 29.1019V24.3957C110.63 24.3957 113.607 24.38 113.706 24.38C114.854 24.38 115.808 23.4681 115.808 22.3151C115.808 21.1569 114.859 20.2136 113.706 20.2136H110.63V18.961H114.471C116.065 18.961 117.343 17.6875 117.338 16.0943C117.333 14.5169 116.059 13.17 114.466 13.17ZM128.171 13.17C128.171 13.17 120.724 13.2172 120.635 13.2172C119.356 13.2172 118.292 14.2915 118.292 15.5598V29.1019H118.308C118.36 30.7055 119.681 32 121.305 32C122.94 32 124.251 30.7108 124.303 29.1019H124.319V24.3957C124.319 24.3957 127.29 24.38 127.395 24.38C128.543 24.38 129.497 23.4681 129.497 22.3151C129.497 21.1569 128.543 20.2136 127.395 20.2136H124.314V18.961H128.155C129.738 18.961 131.022 17.6875 131.022 16.0943C131.022 14.5169 129.753 13.1648 128.171 13.17ZM60.7643 13.2014C59.1763 13.2014 57.8976 14.4802 57.8976 16.0524C57.8976 16.1572 57.9185 16.2673 57.929 16.3773L57.9133 29.0757L57.929 29.2224C58.0076 30.7213 59.2497 31.9266 60.78 31.9266C62.3679 31.9266 63.6467 30.6531 63.6467 29.0757C63.6467 28.8922 63.631 28.7193 63.5995 28.5568V24.7887L67.8655 30.5169C67.9284 30.6112 67.9965 30.7055 68.0594 30.8104L68.0751 30.8418C68.6254 31.4812 69.4587 31.8847 70.3706 31.8847C72.0319 31.8847 73.3683 30.5431 73.3683 28.887C73.3735 28.3105 73.211 27.7445 72.8966 27.2571L72.8494 27.1942C72.8075 27.1261 72.7708 27.058 72.7184 27.0003L68.8612 21.8225L72.0004 18.0282H71.9847C72.3935 17.5303 72.6503 16.8962 72.6503 16.1887C72.645 14.5745 71.3349 13.2434 69.7207 13.2434C68.6621 13.2434 67.7449 13.8041 67.2314 14.6426L63.5995 19.0239V16.4821C63.6152 16.3406 63.631 16.1887 63.631 16.0419C63.631 14.4802 62.347 13.2014 60.7643 13.2014ZM2.54482 13.2172C1.14554 13.2172 0.024023 14.3596 0.024023 15.738C0.024023 15.738 0.00830078 29.1857 0.00830078 29.4111C0.00830078 30.8418 1.09838 31.9161 2.5291 31.9161L9.03811 31.9319C12.235 31.9319 14.8344 29.3482 14.8344 26.1513C14.8344 24.3433 14.0273 22.7344 12.7328 21.6757C13.4927 20.7743 13.9696 19.6056 13.9696 18.3217C13.9749 15.5126 11.6428 13.2067 8.80751 13.2119H2.54482V13.2172ZM46.4937 13.301C41.3787 13.301 37.2176 17.4569 37.2176 22.5771C37.2176 27.6973 41.3787 31.869 46.4937 31.869C51.6139 31.869 55.7751 27.6973 55.7698 22.5771C55.7698 17.4569 51.6139 13.301 46.4937 13.301ZM25.5098 13.3325C20.3843 13.3325 16.2441 17.4989 16.2494 22.6295C16.2494 27.7445 20.3791 31.8952 25.5098 31.8899C30.6405 31.8899 34.7859 27.7445 34.7859 22.6295C34.7859 17.5041 30.6405 13.3325 25.5098 13.3325ZM93.8072 13.3325C88.666 13.3325 84.4944 17.5146 84.4944 22.661C84.4944 27.7969 88.6608 31.9738 93.8072 31.9738C98.9431 31.9738 103.12 27.7969 103.12 22.661C103.12 17.5146 98.9483 13.3325 93.8072 13.3325ZM5.06562 17.4307H7.39251C8.16814 17.4307 8.79179 18.0439 8.79179 18.83C8.79179 19.5952 8.1629 20.1978 7.39251 20.1978C7.31914 20.1978 5.06562 20.2136 5.06562 20.2136V17.4307ZM78.2998 18.6518C76.2297 18.6518 74.5632 20.3393 74.5579 22.4094C74.5632 24.4795 76.2297 26.167 78.2998 26.167C80.3751 26.167 82.0574 24.4795 82.0574 22.4094C82.0522 20.3446 80.3647 18.6518 78.2998 18.6518ZM46.4937 18.7357C48.6215 18.7357 50.3509 20.4599 50.3509 22.5929C50.3509 24.7154 48.6215 26.4343 46.4937 26.4343C44.366 26.4343 42.6523 24.7049 42.6523 22.5771C42.647 20.4599 44.3607 18.7409 46.478 18.7357H46.4937ZM25.5098 18.7671C27.6323 18.7671 29.367 20.4913 29.367 22.6243C29.367 24.752 27.6375 26.471 25.5098 26.4658C23.403 26.471 21.6735 24.752 21.6683 22.6243C21.6683 20.4913 23.3978 18.7671 25.5098 18.7671ZM93.8072 18.7986C95.9402 18.7986 97.6644 20.5123 97.6644 22.6557C97.6644 24.7835 95.9349 26.5129 93.8072 26.5129C91.6742 26.5129 89.9447 24.7835 89.95 22.6557C89.9447 20.528 91.6637 18.8038 93.7915 18.7986H93.8072ZM5.06562 24.1703L8.02664 24.186C8.83372 24.186 9.49405 24.8254 9.49405 25.6325C9.48881 26.4501 8.83896 27.0999 8.02664 27.0999H5.08134L5.06562 24.1703ZM128.04 27.0999C126.688 27.0999 125.613 28.1847 125.613 29.5421C125.618 30.9047 126.682 31.9843 128.04 31.9843C129.392 31.9843 130.482 30.8994 130.482 29.5421C130.487 28.1952 129.397 27.1051 128.05 27.0999C128.05 27.0999 128.045 27.0999 128.04 27.0999ZM128.04 27.3462C129.245 27.3462 130.236 28.3262 130.236 29.5421C130.236 30.7527 129.245 31.738 128.04 31.738C126.829 31.738 125.86 30.7475 125.86 29.5421C125.86 28.3262 126.829 27.3462 128.04 27.3462ZM126.934 28.0956V30.9256H127.521V29.8199H128.124C128.297 29.8199 128.422 29.8408 128.48 29.9037C128.543 29.9561 128.58 30.0819 128.58 30.2601V30.5221C128.58 30.6112 128.59 30.6846 128.595 30.7684C128.606 30.8156 128.627 30.8732 128.642 30.9309H129.292V30.868C129.235 30.8366 129.193 30.7632 129.177 30.6898C129.166 30.6426 129.161 30.5588 129.161 30.4278V30.2496C129.161 30.0504 129.135 29.9037 129.077 29.8094C129.025 29.7098 128.92 29.6364 128.8 29.584C128.946 29.5316 129.077 29.4373 129.14 29.3063C129.208 29.1805 129.235 29.0495 129.24 28.9132C129.24 28.7979 129.224 28.7088 129.193 28.6197C129.151 28.5306 129.093 28.452 129.03 28.3734C128.962 28.2843 128.868 28.2214 128.768 28.1795C128.658 28.1323 128.522 28.1061 128.328 28.0956H126.934ZM127.521 28.5988H128.202C128.333 28.5988 128.417 28.6145 128.48 28.6459C128.595 28.7036 128.658 28.8136 128.658 28.9866C128.658 29.1386 128.59 29.2434 128.48 29.2958C128.412 29.3272 128.323 29.3429 128.186 29.3429H127.521V28.5988Z" fill="#B3B3B3"/>
</g>
<defs>
<clipPath id="clip0_460_40897">
<rect width="131.019" height="32" fill="white" transform="translate(0.00292969)"/>
</clipPath>
</defs>
</svg>
