<svg width="96" height="32" viewBox="0 0 96 32" fill="none" xmlns="http://www.w3.org/2000/svg">
<path fill-rule="evenodd" clip-rule="evenodd" d="M1.83049 25.5529L9.5362 25.4493L9.55815 25.4044L1.25467 24.0751L1.2123 23.9148L8.17475 23.8153C8.17475 23.8153 8.11706 23.6769 7.93942 23.3339L0.775837 22.193L0.751334 22.0327L7.45344 21.9362L7.34879 21.4686L0.552757 20.4537L0.5451 20.2562L7.14715 20.1612L7.0961 19.6748L0.496094 18.59L0.507324 18.4287L7.09814 18.3337C7.06394 18.1454 7.11907 17.7645 7.11907 17.7645L0.600742 16.7722L0.62984 16.6098L7.21606 16.5333C7.21504 16.4393 7.25333 16.0937 7.25333 16.0937L0.84271 14.9426L0.871808 14.7808L7.52031 14.6848C7.52031 14.6848 7.5637 14.3203 7.63976 14.1309L1.2317 13.1529L1.27866 12.9905L7.94095 12.8945C7.94095 12.8945 8.07929 12.5086 8.15586 12.3662L1.7774 11.4039L1.82437 11.26L8.59896 11.1625C8.59896 11.1625 8.79498 10.7546 8.84042 10.6443L2.51096 9.66474L2.5763 9.52027L9.47137 9.42123C9.47137 9.42123 9.65616 9.05828 9.82564 8.80457L3.50283 7.82547L3.56766 7.69887L10.6587 7.61465C10.6587 7.61465 10.8721 7.27874 11.0585 7.10365L4.66672 6.14599L4.78567 6.00101L12.0355 5.89687C12.0355 5.89687 12.3183 5.58854 12.5205 5.42876L6.23594 4.46957L6.33702 4.32459L13.7242 4.21229L14.2071 3.78399L8.48257 2.5471L8.46878 2.54863C10.9257 0.991663 13.9748 0.0508471 17.6488 0.00184092C24.4785 -0.0905561 30.2454 3.29036 30.4378 11.2288L21.5585 11.3483C21.2645 8.53402 19.5865 7.57482 17.196 7.60698C12.0309 7.67641 9.80012 13.2141 9.87056 18.4654C9.91906 22.0505 11.4878 24.4207 15.2868 24.3686C17.8055 24.3349 19.9276 23.4105 20.8337 20.9219L16.565 20.9785L17.8433 14.4291L30.3077 14.2611L27.0334 31.084L21.0996 31.1636L21.3161 28.2156L21.2298 28.1309C19.3022 30.8038 16.2858 31.9544 13.0417 31.9983C6.70048 32.084 3.4186 28.9471 1.83968 25.5785L1.83049 25.5529ZM47.5706 14.4944C46.6609 13.9574 45.5338 13.5873 44.0825 13.6041C42.2754 13.6245 40.3126 14.3591 40.3391 16.6313C40.3759 19.8345 46.8922 19.7871 46.9499 24.7969C46.983 27.6714 45.0218 30.9528 40.4223 31.0054C38.2048 31.0314 36.6111 30.5567 35.071 29.9717L35.9184 27.4433C37.0486 28.1421 38.6152 28.6169 39.9568 28.602C42.8589 28.5684 44.0702 26.7475 44.0513 25.1594C44.0069 21.2721 37.4988 22.0316 37.4376 16.7206C37.3972 13.2432 40.5505 11.2355 43.6991 11.1992C45.2867 11.1809 46.8508 11.4642 48.3088 12.0497L47.5706 14.4944ZM58.5138 30.2218C57.1758 30.5659 55.7827 30.8283 54.3871 30.8441C50.9924 30.8829 47.9371 29.55 47.88 24.6218C47.8355 20.7616 50.4946 16.2678 55.4228 16.2106C58.79 16.1718 60.7022 18.176 60.741 21.489C60.7512 22.4191 60.6512 23.2149 60.5235 24.0373L50.6947 24.1512C50.6437 24.4408 50.6196 24.7346 50.6228 25.0287C50.6565 27.9578 52.4733 28.7853 54.9649 28.7567C56.2513 28.7419 57.6439 28.3979 58.8972 27.8624L58.5138 30.2218ZM58.0921 22.1491C58.1432 21.7381 58.1661 21.4094 58.1621 21.0801C58.1442 19.4379 57.1171 18.2725 55.1732 18.2944C53.0654 18.3184 51.4712 20.172 50.9479 22.2318L58.0921 22.1491ZM62.4042 18.5936C62.5078 18.0172 62.6635 17.2765 62.763 16.4541L65.173 16.4261L64.76 18.6487H64.8146C65.6202 17.3245 67.1118 16.0754 69.5483 16.0473C69.7944 16.0442 70.2334 16.0942 70.7286 16.2806L70.1793 18.5588C69.6846 18.3735 69.2732 18.2954 69.0818 18.2985C65.9061 18.3342 64.3848 21.8019 64.0489 23.5309L62.6768 30.4194L60.1034 30.4495L62.4042 18.5936ZM71.5234 16.352L74.0967 16.3229L71.3008 30.3193L68.7275 30.3494L71.5234 16.352ZM74.9099 13.1922L72.0073 13.2253L72.5755 10.3161L75.4781 10.2829L74.9099 13.1922ZM84.3262 29.9227C82.9883 30.2667 81.5952 30.5291 80.1995 30.5449C76.8048 30.5848 73.7496 29.2509 73.6929 24.3227C73.648 20.4624 76.3071 15.9687 81.2353 15.9115C84.6024 15.8732 86.5147 17.8779 86.5535 21.1899C86.5637 22.121 86.4636 22.9158 86.336 23.7392L76.5072 23.852C76.4562 24.1417 76.4321 24.4354 76.4352 24.7295C76.4689 27.6587 78.2857 28.4862 80.7774 28.4576C82.0638 28.4438 83.4564 28.0987 84.7096 27.5642L84.3262 29.9227ZM83.9046 21.8499C83.9556 21.439 83.9786 21.1102 83.9745 20.781C83.9556 19.1388 82.9296 17.9733 80.9857 17.9953C78.8779 18.0203 77.2837 19.8728 76.7604 21.9326L83.9046 21.8499Z" fill="#B3B3B3"/>
<path fill-rule="evenodd" clip-rule="evenodd" d="M95.2566 18.5429C94.5409 18.1948 93.4143 17.8517 92.4561 17.8629C91.3335 17.8757 89.8588 18.1937 89.8746 19.5909C89.9027 21.9718 94.6675 22.0264 94.7124 25.9143C94.7512 29.2824 91.6694 30.4126 89.48 30.4376C87.2624 30.4637 86.437 30.1717 85.3931 29.8276L85.8596 27.605C86.8775 28.0037 87.9506 28.3748 89.0721 28.3615C90.4688 28.3457 91.9956 27.7525 91.9762 26.1649C91.9492 23.783 87.1813 23.4818 87.1404 19.9503C87.1067 16.9931 90.0497 15.8093 92.3499 15.7827C93.5812 15.7684 94.8446 16.0548 95.9998 16.5071L95.2566 18.5429Z" fill="#B3B3B3"/>
</svg>
