<svg width="18" height="18" viewBox="0 0 18 18" fill="none" xmlns="http://www.w3.org/2000/svg">
<path d="M9.24446 0C4.31112 0 1.6875 3.16139 1.6875 6.60855C1.6875 8.20724 2.58079 10.2008 4.01073 10.8331C4.22786 10.931 4.34599 10.8894 4.39437 10.688C4.43712 10.535 4.62501 9.79807 4.71614 9.45042C4.74426 9.33904 4.72964 9.24229 4.63963 9.13766C4.16486 8.58864 3.78797 7.58847 3.78797 6.65017C3.78797 4.24594 5.69943 1.91146 8.95195 1.91146C11.7646 1.91146 13.7323 3.73854 13.7323 6.35204C13.7323 9.30529 12.1696 11.3484 10.1389 11.3484C9.01495 11.3484 8.17792 10.4663 8.44343 9.37505C8.76407 8.07561 9.39297 6.6783 9.39297 5.74113C9.39297 4.90072 8.9182 4.20544 7.94841 4.20544C6.80423 4.20544 5.87606 5.33837 5.87606 6.85943C5.87606 7.82585 6.21808 8.47838 6.21808 8.47838C6.21808 8.47838 5.08628 13.0506 4.87589 13.9045C4.52038 15.3502 4.92427 17.6914 4.95915 17.8928C4.98052 18.0042 5.1054 18.0391 5.17516 17.9479C5.28654 17.8017 6.6546 15.8497 7.03824 14.4389C7.17775 13.9248 7.7504 11.84 7.7504 11.84C8.12729 12.5207 9.21521 13.0911 10.374 13.0911C13.8212 13.0911 16.312 10.0613 16.312 6.30141C16.2997 2.69675 13.2148 0 9.24446 0Z" fill="white"/>
</svg>
