<svg width="20" height="20" viewBox="0 0 20 20" fill="none" xmlns="http://www.w3.org/2000/svg">
<path d="M10.3445 14.9017L14.2852 17.3979C14.7889 17.7167 15.4139 17.2423 15.2645 16.6542L14.1264 12.176C14.0943 12.0513 14.098 11.92 14.1371 11.7973C14.1763 11.6746 14.2492 11.5654 14.3477 11.4823L17.8814 8.54167C18.3452 8.15542 18.1064 7.3848 17.5095 7.34605L12.8952 7.04605C12.7709 7.03723 12.6517 6.99331 12.5515 6.9194C12.4513 6.84549 12.3741 6.74462 12.3289 6.62855L10.6077 2.2948C10.5608 2.17163 10.4776 2.06563 10.3691 1.99083C10.2606 1.91603 10.1319 1.87598 10.0002 1.87598C9.86838 1.87598 9.73972 1.91603 9.63122 1.99083C9.52273 2.06563 9.43953 2.17163 9.39266 2.2948L7.67141 6.62855C7.62636 6.74474 7.54921 6.84574 7.44895 6.91977C7.3487 6.99379 7.22947 7.03781 7.10516 7.04667L2.49079 7.34667C1.89454 7.3848 1.65454 8.15542 2.11891 8.54167L5.65266 11.4829C5.75098 11.566 5.82389 11.675 5.86303 11.7976C5.90216 11.9202 5.90594 12.0514 5.87391 12.176L4.81891 16.3292C4.63954 17.0348 5.39016 17.6042 5.99391 17.221L9.65641 14.9017C9.75935 14.8362 9.87881 14.8015 10.0008 14.8015C10.1228 14.8015 10.2422 14.8362 10.3452 14.9017H10.3445Z" fill="#FF8A00"/>
</svg>
