<svg width="56" height="56" viewBox="0 0 56 56" fill="none" xmlns="http://www.w3.org/2000/svg">
<rect x="0.4" y="0.4" width="55.2" height="55.2" rx="3.6" fill="white" stroke="#E6E6E6" stroke-width="0.8"/>
<path d="M17.1333 21.0016C29.2644 8.40397 43.2617 21.0016 43.2617 21.0016C43.2617 21.0016 29.2644 33.5992 17.1333 21.0016Z" fill="#36C63F"/>
<path d="M34.8938 26.196C39.954 24.6073 43.4454 21.4993 43.5916 21.3677L44 21.0001L43.5916 20.6324C43.4454 20.5009 39.954 17.3927 34.8938 15.804C31.902 14.8648 28.9897 14.6615 26.2377 15.2C22.858 15.8613 19.7256 17.6464 16.9243 20.5054L12 20.5054L12 21.4946L16.9243 21.4946C19.7257 24.3536 22.8579 26.1388 26.2377 26.8C28.9897 27.3385 31.9021 27.1353 34.8938 26.196ZM26.4097 25.8258C23.5163 25.256 20.806 23.8006 18.3384 21.4946L25.3259 21.4946L27.9805 24.1493L28.6798 23.4498L26.7247 21.4947L32.5294 21.4947L32.5294 20.5055L29.0575 20.5055L31.0127 18.5503L30.3133 17.8509L27.6587 20.5055L22.992 20.5055L24.4806 19.0169L23.7812 18.3175L21.5931 20.5056L18.3384 20.5056C20.806 18.1996 23.5163 16.7442 26.4097 16.1743C28.9942 15.6653 31.7388 15.8551 34.5674 16.7384C38.4272 17.9438 41.4068 20.133 42.4887 21.0001C41.4067 21.8673 38.4272 24.0564 34.5674 25.2618C31.7389 26.1451 28.9942 26.3349 26.4097 25.8258Z" fill="#009F06"/>
<path opacity="0.3" d="M34.3945 21.4933L34.3945 20.5042L33.4615 20.5042L33.4615 21.4933L34.3945 21.4933Z" fill="white"/>
<path opacity="0.2" d="M36.2617 21.4933L36.2617 20.5042L35.3287 20.5042L35.3287 21.4933L36.2617 21.4933Z" fill="#1A1A1A"/>
<path d="M7.987 43.64C7.89167 43.64 7.779 43.6097 7.649 43.549C7.51033 43.4883 7.39333 43.367 7.298 43.185C7.194 43.0117 7.142 42.7473 7.142 42.392C7.142 42.0193 7.207 41.5297 7.337 40.923C7.45833 40.325 7.63167 39.662 7.857 38.934C8.07367 38.1973 8.32933 37.4433 8.624 36.672C8.92733 35.9007 9.248 35.1597 9.586 34.449C9.93267 33.7297 10.288 33.084 10.652 32.512C11.0247 31.94 11.393 31.485 11.757 31.147C12.121 30.809 12.472 30.64 12.81 30.64C13.0353 30.64 13.1827 30.7093 13.252 30.848C13.3213 30.978 13.356 31.1297 13.356 31.303C13.356 31.6757 13.252 32.083 13.044 32.525C12.8447 32.967 12.576 33.4133 12.238 33.864C11.9 34.306 11.5187 34.7263 11.094 35.125C10.678 35.5237 10.249 35.866 9.807 36.152C9.77233 36.2387 9.73767 36.3253 9.703 36.412C9.66833 36.4987 9.63367 36.5853 9.599 36.672C9.69433 36.7067 9.768 36.7673 9.82 36.854C9.88067 36.9407 9.91533 37.0317 9.924 37.127C9.99333 37.4997 10.0627 37.8333 10.132 38.128C10.2013 38.414 10.3053 38.6393 10.444 38.804C10.5913 38.9687 10.7993 39.051 11.068 39.051C11.3713 39.051 11.64 38.9383 11.874 38.713C12.108 38.4877 12.3463 38.1713 12.589 37.764L12.875 37.972C12.5977 38.5267 12.2857 38.934 11.939 39.194C11.5923 39.4453 11.2803 39.571 11.003 39.571C10.8557 39.571 10.6997 39.5407 10.535 39.48C10.379 39.4193 10.2273 39.3327 10.08 39.22C10.0713 39.7573 10.0063 40.286 9.885 40.806C9.77233 41.3347 9.61633 41.8113 9.417 42.236C9.21767 42.6607 8.99233 42.9987 8.741 43.25C8.49833 43.51 8.247 43.64 7.987 43.64ZM8.351 42.834C8.44633 42.834 8.546 42.7517 8.65 42.587C8.76267 42.4223 8.871 42.2057 8.975 41.937C9.079 41.6683 9.17433 41.3693 9.261 41.04C9.34767 40.7193 9.417 40.3987 9.469 40.078C9.521 39.766 9.547 39.48 9.547 39.22C9.547 38.9687 9.51667 38.7477 9.456 38.557C9.404 38.3577 9.30867 38.1367 9.17 37.894C8.97067 38.492 8.793 39.0683 8.637 39.623C8.481 40.1777 8.35967 40.6803 8.273 41.131C8.18633 41.5903 8.143 41.9717 8.143 42.275C8.143 42.6477 8.21233 42.834 8.351 42.834ZM10.184 35.242C10.7127 34.748 11.1633 34.267 11.536 33.799C11.9087 33.331 12.1903 32.9193 12.381 32.564C12.5803 32.2 12.68 31.9443 12.68 31.797C12.68 31.7277 12.6453 31.693 12.576 31.693C12.368 31.693 12.1297 31.8533 11.861 32.174C11.5923 32.486 11.315 32.9107 11.029 33.448C10.743 33.9853 10.4613 34.5833 10.184 35.242ZM13.019 40.611C12.733 40.611 12.486 40.5157 12.278 40.325C12.0613 40.1343 11.953 39.8483 11.953 39.467C11.953 39.1637 12.0223 38.8343 12.161 38.479C12.2997 38.1237 12.4903 37.7727 12.733 37.426C12.9757 37.0793 13.253 36.7673 13.565 36.49C13.877 36.204 14.2107 35.9743 14.566 35.801C14.9213 35.6277 15.2767 35.541 15.632 35.541C16.0047 35.541 16.321 35.6363 16.581 35.827C16.841 36.0177 16.971 36.269 16.971 36.581C16.971 36.815 16.8887 36.984 16.724 37.088C16.5593 37.192 16.3643 37.2223 16.139 37.179C16.1563 37.101 16.1693 37.023 16.178 36.945C16.1953 36.867 16.204 36.7847 16.204 36.698C16.204 36.5247 16.1693 36.3687 16.1 36.23C16.0307 36.0913 15.8833 36.022 15.658 36.022C15.4153 36.022 15.1683 36.1043 14.917 36.269C14.6657 36.4337 14.423 36.6503 14.189 36.919C13.9637 37.179 13.76 37.4693 13.578 37.79C13.396 38.102 13.253 38.4097 13.149 38.713C13.045 39.0163 12.993 39.2893 12.993 39.532C12.993 39.8093 13.0927 39.948 13.292 39.948C13.4913 39.948 13.7123 39.8527 13.955 39.662C14.1977 39.4627 14.4403 39.2157 14.683 38.921C14.9343 38.6263 15.1727 38.3273 15.398 38.024C15.6233 37.712 15.8183 37.4477 15.983 37.231C16.009 37.1877 16.0437 37.166 16.087 37.166C16.1217 37.1747 16.1867 37.1963 16.282 37.231C16.386 37.257 16.4813 37.3003 16.568 37.361C16.6547 37.4217 16.698 37.4997 16.698 37.595C16.698 37.6817 16.659 37.7943 16.581 37.933C16.5117 38.063 16.425 38.2103 16.321 38.375C16.2257 38.531 16.139 38.6913 16.061 38.856C15.9917 39.012 15.957 39.1637 15.957 39.311C15.957 39.4237 15.9873 39.532 16.048 39.636C16.1087 39.7313 16.2083 39.779 16.347 39.779C16.555 39.779 16.8453 39.6273 17.218 39.324C17.5993 39.012 17.985 38.4877 18.375 37.751L18.622 37.998C18.414 38.466 18.1627 38.882 17.868 39.246C17.582 39.6013 17.2787 39.8787 16.958 40.078C16.6373 40.286 16.3123 40.39 15.983 40.39C15.6277 40.39 15.3633 40.2773 15.19 40.052C15.0167 39.8267 14.9213 39.584 14.904 39.324C14.904 39.3067 14.904 39.2937 14.904 39.285C14.904 39.2763 14.904 39.2677 14.904 39.259C14.5573 39.675 14.2367 40.0043 13.942 40.247C13.656 40.4897 13.3483 40.611 13.019 40.611ZM20.4724 40.338C20.1517 40.338 19.8917 40.2513 19.6924 40.078C19.493 39.9133 19.3934 39.688 19.3934 39.402C19.3934 39.1593 19.454 38.8993 19.5754 38.622C19.6967 38.3447 19.818 38.0717 19.9394 37.803C20.0694 37.5343 20.1344 37.296 20.1344 37.088C20.1344 36.8887 20.0694 36.724 19.9394 36.594C19.8094 36.4553 19.6577 36.3427 19.4844 36.256C19.2937 36.7327 19.077 37.1963 18.8344 37.647C18.6004 38.089 18.4097 38.4357 18.2624 38.687L18.0674 38.31C18.1887 38.0847 18.349 37.764 18.5484 37.348C18.7477 36.932 18.9384 36.4683 19.1204 35.957C19.0337 35.8703 18.9904 35.7533 18.9904 35.606C18.9904 35.3807 19.0597 35.1683 19.1984 34.969C19.337 34.7697 19.4714 34.67 19.6014 34.67C19.7054 34.67 19.779 34.7307 19.8224 34.852C19.8744 34.9647 19.9004 35.0427 19.9004 35.086C19.9004 35.1293 19.8787 35.2073 19.8354 35.32C19.8007 35.4327 19.7747 35.515 19.7574 35.567C19.766 35.6623 19.8397 35.7577 19.9784 35.853C20.1257 35.9397 20.2904 36.0437 20.4724 36.165C20.6544 36.2863 20.8147 36.438 20.9534 36.62C21.092 36.802 21.1614 37.0317 21.1614 37.309C21.1614 37.5603 21.105 37.816 20.9924 38.076C20.8797 38.336 20.767 38.5787 20.6544 38.804C20.5417 39.0293 20.4854 39.2243 20.4854 39.389C20.4854 39.5103 20.5157 39.5927 20.5764 39.636C20.6457 39.6707 20.7237 39.688 20.8104 39.688C21.0184 39.688 21.235 39.6273 21.4604 39.506C21.6857 39.376 21.9067 39.2113 22.1234 39.012C22.34 38.8127 22.5307 38.6047 22.6954 38.388C22.86 38.1627 22.9857 37.959 23.0724 37.777L23.3844 38.011C23.2197 38.3837 22.9814 38.752 22.6694 39.116C22.3574 39.4713 22.0107 39.766 21.6294 40C21.248 40.2253 20.8624 40.338 20.4724 40.338ZM29.589 40.403C29.251 40.403 28.9997 40.3033 28.835 40.104C28.6704 39.9047 28.588 39.6663 28.588 39.389C28.588 39.1897 28.6184 38.9903 28.679 38.791C28.7397 38.5917 28.8004 38.3967 28.861 38.206C28.9217 38.0067 28.952 37.829 28.952 37.673C28.952 37.5257 28.9217 37.426 28.861 37.374C28.809 37.3133 28.7397 37.283 28.653 37.283C28.4537 37.283 28.2197 37.4347 27.951 37.738C27.691 38.0413 27.366 38.4833 26.976 39.064C26.8374 39.272 26.7074 39.493 26.586 39.727C26.4647 39.9523 26.3564 40.143 26.261 40.299C26.183 40.299 26.079 40.286 25.949 40.26C25.8277 40.234 25.7194 40.195 25.624 40.143C25.5287 40.0997 25.481 40.039 25.481 39.961C25.481 39.883 25.5244 39.7313 25.611 39.506C25.6977 39.2807 25.7974 39.0207 25.91 38.726C26.0227 38.4227 26.1224 38.128 26.209 37.842C26.2957 37.5473 26.339 37.3003 26.339 37.101C26.339 36.9797 26.3174 36.8843 26.274 36.815C26.2307 36.7457 26.1614 36.711 26.066 36.711C25.884 36.711 25.663 36.8193 25.403 37.036C25.1517 37.2527 24.883 37.5387 24.597 37.894C24.3197 38.2407 24.0554 38.6307 23.804 39.064C23.5614 39.4887 23.362 39.9177 23.206 40.351C23.1107 40.351 22.9937 40.3293 22.855 40.286C22.7164 40.2513 22.595 40.2037 22.491 40.143C22.387 40.091 22.335 40.0433 22.335 40C22.335 39.9913 22.3654 39.87 22.426 39.636C22.4867 39.3933 22.5604 39.0943 22.647 38.739C22.7337 38.3837 22.8247 38.0197 22.92 37.647C23.0154 37.2743 23.0977 36.9493 23.167 36.672C23.193 36.5767 23.2884 36.4943 23.453 36.425C23.6177 36.347 23.7607 36.308 23.882 36.308C24.0034 36.308 24.1074 36.347 24.194 36.425C24.2807 36.503 24.324 36.607 24.324 36.737C24.324 36.8237 24.3067 36.9493 24.272 37.114C24.2374 37.2787 24.194 37.465 24.142 37.673C24.324 37.4303 24.5147 37.192 24.714 36.958C24.922 36.7153 25.1344 36.4987 25.351 36.308C25.5764 36.1173 25.7974 35.9657 26.014 35.853C26.2394 35.7403 26.4604 35.684 26.677 35.684C26.9977 35.684 27.2144 35.801 27.327 36.035C27.4397 36.2603 27.496 36.5073 27.496 36.776C27.496 36.8887 27.4874 37.0013 27.47 37.114C27.4527 37.218 27.4267 37.3263 27.392 37.439C27.366 37.543 27.327 37.6687 27.275 37.816C27.4397 37.5733 27.6174 37.3523 27.808 37.153C28.0074 36.945 28.2197 36.7803 28.445 36.659C28.6704 36.5377 28.9087 36.477 29.16 36.477C29.498 36.477 29.732 36.581 29.862 36.789C29.992 36.9883 30.057 37.2093 30.057 37.452C30.057 37.6773 30.018 37.9157 29.94 38.167C29.8707 38.4097 29.797 38.6437 29.719 38.869C29.6497 39.0857 29.615 39.272 29.615 39.428C29.615 39.5147 29.6367 39.597 29.68 39.675C29.7234 39.7443 29.81 39.779 29.94 39.779C30.174 39.779 30.3994 39.6707 30.616 39.454C30.8327 39.2373 31.032 38.973 31.214 38.661C31.4047 38.3403 31.565 38.037 31.695 37.751L31.916 38.024C31.7774 38.3793 31.5954 38.7433 31.37 39.116C31.1534 39.48 30.8977 39.7833 30.603 40.026C30.3084 40.2773 29.9704 40.403 29.589 40.403ZM32.1001 40.611C31.8141 40.611 31.5671 40.5157 31.3591 40.325C31.1424 40.1343 31.0341 39.8483 31.0341 39.467C31.0341 39.1637 31.1034 38.8343 31.2421 38.479C31.3807 38.1237 31.5714 37.7727 31.8141 37.426C32.0567 37.0793 32.3341 36.7673 32.6461 36.49C32.9581 36.204 33.2917 35.9743 33.6471 35.801C34.0024 35.6277 34.3577 35.541 34.7131 35.541C35.0857 35.541 35.4021 35.6363 35.6621 35.827C35.9221 36.0177 36.0521 36.269 36.0521 36.581C36.0521 36.815 35.9697 36.984 35.8051 37.088C35.6404 37.192 35.4454 37.2223 35.2201 37.179C35.2374 37.101 35.2504 37.023 35.2591 36.945C35.2764 36.867 35.2851 36.7847 35.2851 36.698C35.2851 36.5247 35.2504 36.3687 35.1811 36.23C35.1117 36.0913 34.9644 36.022 34.7391 36.022C34.4964 36.022 34.2494 36.1043 33.9981 36.269C33.7467 36.4337 33.5041 36.6503 33.2701 36.919C33.0447 37.179 32.8411 37.4693 32.6591 37.79C32.4771 38.102 32.3341 38.4097 32.2301 38.713C32.1261 39.0163 32.0741 39.2893 32.0741 39.532C32.0741 39.8093 32.1737 39.948 32.3731 39.948C32.5724 39.948 32.7934 39.8527 33.0361 39.662C33.2787 39.4627 33.5214 39.2157 33.7641 38.921C34.0154 38.6263 34.2537 38.3273 34.4791 38.024C34.7044 37.712 34.8994 37.4477 35.0641 37.231C35.0901 37.1877 35.1247 37.166 35.1681 37.166C35.2027 37.1747 35.2677 37.1963 35.3631 37.231C35.4671 37.257 35.5624 37.3003 35.6491 37.361C35.7357 37.4217 35.7791 37.4997 35.7791 37.595C35.7791 37.6817 35.7401 37.7943 35.6621 37.933C35.5927 38.063 35.5061 38.2103 35.4021 38.375C35.3067 38.531 35.2201 38.6913 35.1421 38.856C35.0727 39.012 35.0381 39.1637 35.0381 39.311C35.0381 39.4237 35.0684 39.532 35.1291 39.636C35.1897 39.7313 35.2894 39.779 35.4281 39.779C35.6361 39.779 35.9264 39.6273 36.2991 39.324C36.6804 39.012 37.0661 38.4877 37.4561 37.751L37.7031 37.998C37.4951 38.466 37.2437 38.882 36.9491 39.246C36.6631 39.6013 36.3597 39.8787 36.0391 40.078C35.7184 40.286 35.3934 40.39 35.0641 40.39C34.7087 40.39 34.4444 40.2773 34.2711 40.052C34.0977 39.8267 34.0024 39.584 33.9851 39.324C33.9851 39.3067 33.9851 39.2937 33.9851 39.285C33.9851 39.2763 33.9851 39.2677 33.9851 39.259C33.6384 39.675 33.3177 40.0043 33.0231 40.247C32.7371 40.4897 32.4294 40.611 32.1001 40.611ZM39.5534 40.338C39.2328 40.338 38.9728 40.2513 38.7734 40.078C38.5741 39.9133 38.4744 39.688 38.4744 39.402C38.4744 39.1593 38.5351 38.8993 38.6564 38.622C38.7778 38.3447 38.8991 38.0717 39.0204 37.803C39.1504 37.5343 39.2154 37.296 39.2154 37.088C39.2154 36.8887 39.1504 36.724 39.0204 36.594C38.8904 36.4553 38.7388 36.3427 38.5654 36.256C38.3748 36.7327 38.1581 37.1963 37.9154 37.647C37.6814 38.089 37.4908 38.4357 37.3434 38.687L37.1484 38.31C37.2698 38.0847 37.4301 37.764 37.6294 37.348C37.8288 36.932 38.0194 36.4683 38.2014 35.957C38.1148 35.8703 38.0714 35.7533 38.0714 35.606C38.0714 35.3807 38.1408 35.1683 38.2794 34.969C38.4181 34.7697 38.5524 34.67 38.6824 34.67C38.7864 34.67 38.8601 34.7307 38.9034 34.852C38.9554 34.9647 38.9814 35.0427 38.9814 35.086C38.9814 35.1293 38.9598 35.2073 38.9164 35.32C38.8818 35.4327 38.8558 35.515 38.8384 35.567C38.8471 35.6623 38.9208 35.7577 39.0594 35.853C39.2068 35.9397 39.3714 36.0437 39.5534 36.165C39.7354 36.2863 39.8958 36.438 40.0344 36.62C40.1731 36.802 40.2424 37.0317 40.2424 37.309C40.2424 37.5603 40.1861 37.816 40.0734 38.076C39.9608 38.336 39.8481 38.5787 39.7354 38.804C39.6228 39.0293 39.5664 39.2243 39.5664 39.389C39.5664 39.5103 39.5968 39.5927 39.6574 39.636C39.7268 39.6707 39.8048 39.688 39.8914 39.688C40.0994 39.688 40.3161 39.6273 40.5414 39.506C40.7668 39.376 40.9878 39.2113 41.2044 39.012C41.4211 38.8127 41.6118 38.6047 41.7764 38.388C41.9411 38.1627 42.0668 37.959 42.1534 37.777L42.4654 38.011C42.3008 38.3837 42.0624 38.752 41.7504 39.116C41.4384 39.4713 41.0918 39.766 40.7104 40C40.3291 40.2253 39.9434 40.338 39.5534 40.338ZM42.4951 43.64C42.2784 43.64 42.0748 43.5707 41.8841 43.432C41.7021 43.302 41.6111 43.0897 41.6111 42.795C41.6111 42.5177 41.6934 42.2663 41.8581 42.041C42.0228 41.8243 42.2351 41.6207 42.4951 41.43C42.7551 41.248 43.0324 41.079 43.3271 40.923C43.6304 40.7757 43.9208 40.637 44.1981 40.507C44.2934 40.2557 44.3974 39.9393 44.5101 39.558C44.6314 39.168 44.7354 38.8083 44.8221 38.479C44.5534 38.8517 44.2674 39.181 43.9641 39.467C43.6608 39.753 43.3228 39.896 42.9501 39.896C42.7941 39.896 42.6294 39.8657 42.4561 39.805C42.2828 39.7357 42.1354 39.623 42.0141 39.467C41.9014 39.3023 41.8451 39.0857 41.8451 38.817C41.8451 38.5917 41.8841 38.3187 41.9621 37.998C42.0488 37.6773 42.1528 37.3653 42.2741 37.062C42.4041 36.75 42.5384 36.4943 42.6771 36.295C42.8158 36.087 42.9371 35.983 43.0411 35.983C43.0931 35.983 43.1668 36.0047 43.2621 36.048C43.3661 36.0827 43.4658 36.1347 43.5611 36.204C43.6564 36.2647 43.7171 36.334 43.7431 36.412C43.6651 36.516 43.5784 36.6677 43.4831 36.867C43.3878 37.0577 43.2968 37.2743 43.2101 37.517C43.1234 37.751 43.0498 37.9807 42.9891 38.206C42.9371 38.4313 42.9111 38.6263 42.9111 38.791C42.9111 38.921 42.9371 39.0337 42.9891 39.129C43.0411 39.2243 43.1408 39.272 43.2881 39.272C43.4788 39.272 43.6738 39.194 43.8731 39.038C44.0811 38.882 44.2804 38.6827 44.4711 38.44C44.6704 38.1973 44.8481 37.9503 45.0041 37.699C45.0214 37.6383 45.0388 37.543 45.0561 37.413C45.0734 37.283 45.1038 37.1487 45.1471 37.01C45.1904 36.8627 45.2641 36.7283 45.3681 36.607C45.4808 36.4857 45.6368 36.425 45.8361 36.425C45.9054 36.425 45.9704 36.4293 46.0311 36.438C46.0918 36.4467 46.1654 36.4597 46.2521 36.477C46.2521 36.607 46.2044 36.8627 46.1091 37.244C46.0224 37.6167 45.9054 38.05 45.7581 38.544C45.6108 39.038 45.4461 39.532 45.2641 40.026C45.6281 39.8787 46.0051 39.636 46.3951 39.298C46.7938 38.9513 47.1144 38.4617 47.3571 37.829L47.5781 38.011C47.4481 38.4443 47.2488 38.8213 46.9801 39.142C46.7201 39.4627 46.4254 39.7357 46.0961 39.961C45.7668 40.1863 45.4331 40.3727 45.0951 40.52C44.8611 41.0833 44.6054 41.6033 44.3281 42.08C44.0594 42.5567 43.7734 42.9337 43.4701 43.211C43.1668 43.497 42.8418 43.64 42.4951 43.64ZM42.3651 43.159C42.5298 43.159 42.7594 42.9857 43.0541 42.639C43.3488 42.2923 43.6478 41.7723 43.9511 41.079C43.6738 41.2177 43.3921 41.378 43.1061 41.56C42.8288 41.7507 42.5948 41.95 42.4041 42.158C42.2134 42.366 42.1181 42.5783 42.1181 42.795C42.1181 42.8817 42.1354 42.964 42.1701 43.042C42.2134 43.12 42.2784 43.159 42.3651 43.159Z" fill="#555555"/>
</svg>
