<svg width="41" height="41" viewBox="0 0 41 41" fill="none" xmlns="http://www.w3.org/2000/svg">
<circle cx="20.5" cy="20.5001" r="20.5" fill="#E6E6E6"/>
<path d="M20.5008 10.3751C17.7626 10.3751 15.543 12.5767 15.543 15.2925C15.543 18.0094 17.7626 20.211 20.5008 20.211C23.2391 20.211 25.4587 18.0094 25.4587 15.2925C25.4587 12.5767 23.2391 10.3751 20.5008 10.3751Z" fill="#B3B3B3"/>
<path d="M23.4261 22.3991C21.4874 22.0922 19.5126 22.0922 17.5739 22.3991L17.3657 22.4317C14.6342 22.8626 12.625 25.2004 12.625 27.9442C12.6265 28.2978 12.6976 28.6476 12.8342 28.9736C12.9709 29.2997 13.1704 29.5956 13.4215 29.8446C13.6725 30.0935 13.9701 30.2906 14.2973 30.4245C14.6245 30.5584 14.9748 30.6266 15.3284 30.6251H25.6716C26.0252 30.6266 26.3755 30.5584 26.7027 30.4245C27.0299 30.2906 27.3275 30.0935 27.5785 29.8446C27.8296 29.5956 28.0291 29.2997 28.1658 28.9736C28.3024 28.6476 28.3735 28.2978 28.375 27.9442C28.375 25.2004 26.3646 22.8637 23.6343 22.4317L23.4261 22.398V22.3991Z" fill="#B3B3B3"/>
</svg>
