<svg width="17" height="15" viewBox="0 0 17 15" fill="none" xmlns="http://www.w3.org/2000/svg">
<rect width="17" height="15" fill="#E6E6E6"/>
<g id="17_Blog_List" clip-path="url(#clip0_460_39913)">
<rect width="1920" height="3676" transform="translate(-870 -877)" fill="white"/>
<g id="Blog">
<g id="Blog_2">
<g id="Blog Card">
<g id="Info">
<path d="M-122 -129.5H-122.5V-129V33C-122.5 37.6944 -118.694 41.5 -114 41.5H294C298.694 41.5 302.5 37.6944 302.5 33V-129V-129.5H302H-122Z" fill="white"/>
<g id="Button">
<g id="Arrow">
<path id="Vector" d="M16 7.50098H1" stroke="#00B307" stroke-width="1.5" stroke-linecap="round" stroke-linejoin="round"/>
<path id="Vector_2" d="M9.95001 1.47559L16 7.49959L9.95001 13.5246" stroke="#00B307" stroke-width="1.5" stroke-linecap="round" stroke-linejoin="round"/>
</g>
</g>
<path d="M-122 -129.5H-122.5V-129V33C-122.5 37.6944 -118.694 41.5 -114 41.5H294C298.694 41.5 302.5 37.6944 302.5 33V-129V-129.5H302H-122Z" stroke="#E6E6E6"/>
</g>
</g>
</g>
</g>
</g>
<defs>
<clipPath id="clip0_460_39913">
<rect width="1920" height="3676" fill="white" transform="translate(-870 -877)"/>
</clipPath>
</defs>
</svg>
