<svg width="40" height="32" viewBox="0 0 40 32" fill="none" xmlns="http://www.w3.org/2000/svg">
<path fill-rule="evenodd" clip-rule="evenodd" d="M29.7778 0C25.5446 0 22.1063 3.2701 22.1063 7.30289C22.1063 11.3332 25.5446 14.6058 29.7778 14.6058C37.0505 14.6058 32.8361 27.2874 23.6638 28.6084C23.231 28.6691 22.836 28.8711 22.5504 29.1779C22.2647 29.4847 22.1072 29.8759 22.1063 30.2808C22.1063 31.3177 23.1087 32.1377 24.2189 31.9807C40.8902 29.6427 46.8183 0.00249227 29.7778 0.00249227V0ZM7.67416 0C3.43559 0 0 3.26761 0 7.30289C0 11.3307 3.43559 14.6008 7.67416 14.6008C14.9441 14.6008 10.7298 27.2874 1.55747 28.6084C1.12515 28.669 0.730538 28.8707 0.444914 29.177C0.159289 29.4832 0.00148353 29.8739 0 30.2783C0 31.3152 1.00238 32.1352 2.10986 31.9782C18.7866 29.6402 24.7147 0 7.67416 0Z" fill="#00B307"/>
</svg>
